<?xml version="1.0" encoding="utf-8"?>
<!-- Generator: Adobe Illustrator 24.0.1, SVG Export Plug-In . SVG Version: 6.00 Build 0)  -->
<svg version="1.1" id="Vrstva_1" focusable="false" xmlns="http://www.w3.org/2000/svg" xmlns:xlink="http://www.w3.org/1999/xlink"
	 x="0px" y="0px" viewBox="0 0 1000 1000" style="enable-background:new 0 0 1000 1000;" xml:space="preserve">
<style type="text/css">
	.st0{fill:#153B72;}
</style>
<path class="st0" d="M988.75,819.47c32.05,55.55-8.18,124.98-72.18,124.98H83.43c-64.13,0-104.16-69.54-72.18-124.98L427.82,97.2
	c32.06-55.57,112.36-55.47,144.36,0L988.75,819.47L988.75,819.47z M500,670.14c-44.11,0-79.86,35.76-79.86,79.86
	s35.76,79.86,79.86,79.86c44.11,0,79.86-35.76,79.86-79.86S544.11,670.14,500,670.14z M424.18,383.08l12.88,236.11
	c0.6,11.05,9.74,19.7,20.8,19.7h84.28c11.06,0,20.2-8.65,20.8-19.7l12.88-236.11c0.65-11.93-8.85-21.97-20.8-21.97H444.98
	C433.03,361.11,423.53,371.15,424.18,383.08L424.18,383.08z"/>
</svg>
