<?xml version="1.0" encoding="utf-8"?>
<!-- Generator: Adobe Illustrator 25.2.1, SVG Export Plug-In . SVG Version: 6.00 Build 0)  -->
<svg version="1.1" id="Vrstva_1" xmlns="http://www.w3.org/2000/svg" xmlns:xlink="http://www.w3.org/1999/xlink" x="0px" y="0px"
	 viewBox="0 0 1000 367" style="enable-background:new 0 0 1000 367;" xml:space="preserve">
<style type="text/css">
	.st0{fill:#0075BF;}
	.st1{fill:#E30613;}
	.st2{fill:#E30B17;stroke:#E3101A;stroke-width:0.5;stroke-miterlimit:10;}
	.st3{fill:#0C75BB;stroke:#0C75BB;stroke-width:0.5;stroke-miterlimit:10;}
</style>
<g>
	<g>
		<path class="st0" d="M399.4,367.1c19.2-89.5,25.7-169-40-268.1l75.3-22.2C457.8,167.8,438.3,265.9,399.4,367.1z"/>
		<path class="st1" d="M458.1,243.8c7.7-77.3,23-143.5,102.1-206.4L504.9-0.1C462.6,67.5,452.9,151.9,458.1,243.8z"/>
	</g>
	<g>
		<path class="st2" d="M0,210.3V23.9h53.1c17,0,29.8,4.1,38.3,12.4c8.6,8.3,12.9,20.7,12.9,37.2c0,8.7-2.2,16.4-6.5,23
			c-4.4,6.7-10.2,11.8-17.7,15.5c8.5,2.6,15.3,7.8,20.3,15.7c5,7.9,7.5,17.5,7.5,28.7c0,16.7-4.6,29.9-13.8,39.4
			c-9.2,9.6-22.3,14.3-39.2,14.3H0z M23.4,103.4h30.1c8.1,0,14.7-2.7,19.7-8.2c5-5.5,7.5-12.7,7.5-21.8c0-10.3-2.3-17.7-6.8-22.4
			c-4.5-4.7-11.4-7-20.7-7H23.4V103.4z M23.4,123.1v67.1h32c8.9,0,15.9-2.9,21.1-8.8c5.2-5.8,7.8-14.1,7.8-24.6
			c0-22.4-9.5-33.7-28.4-33.7H23.4z"/>
		<path class="st2" d="M211.4,124.1h-65.9v66h76.8v20.1H122V23.9H221V44h-75.5v60h65.9V124.1z"/>
		<path class="st2" d="M259.2,190.2h88.4v20.1H233.2v-18.4L318.1,44h-84V23.9h110.1v17.9L259.2,190.2z"/>
	</g>
	<g>
		<path class="st3" d="M527.5,281.4V352h-22.7V171.7h57.5c16.8,0,29.9,5,39.5,15c9.6,10,14.4,23.4,14.4,40.1
			c0,17.3-4.6,30.7-13.7,40.1c-9.1,9.4-22,14.2-38.6,14.6H527.5z M527.5,262h34.8c10.1,0,17.8-3,23.2-9.1s8.1-14.7,8.1-25.9
			c0-10.8-2.8-19.5-8.3-26.1c-5.5-6.5-13.1-9.8-22.8-9.8h-34.9V262z"/>
		<path class="st3" d="M752.5,277.7c0,24.6-5.2,43.6-15.7,56.9s-25.4,19.9-44.7,19.9c-18.6,0-33.3-6.5-44-19.4
			c-10.8-12.9-16.4-31.2-16.8-54.8v-33.9c0-24.1,5.3-43,16-56.7c10.7-13.7,25.5-20.5,44.6-20.5c19,0,33.8,6.5,44.4,19.6
			c10.6,13.1,16,31.8,16.3,56V277.7z M729.9,246.1c0-19.1-3.1-33.3-9.4-42.6c-6.2-9.3-15.8-13.9-28.7-13.9
			c-12.5,0-21.9,4.7-28.3,14.1c-6.4,9.4-9.6,23.3-9.7,41.6v32.3c0,18.4,3.2,32.5,9.6,42.1c6.4,9.7,16,14.5,28.7,14.5
			c12.7,0,22.1-4.5,28.2-13.4s9.3-22.6,9.5-41V246.1z"/>
		<path class="st3" d="M824.3,279h-31.7v73h-22.8V171.7h50.5c17.7,0,31.1,4.6,40.1,13.8c9.1,9.2,13.6,22.7,13.6,40.4
			c0,11.1-2.5,20.9-7.4,29.2c-4.9,8.3-11.9,14.6-20.9,18.8l34.9,76.7v1.5h-24.4L824.3,279z M792.6,259.6h27.5
			c9.5,0,17.1-3.1,22.7-9.2c5.7-6.1,8.5-14.3,8.5-24.6c0-23.2-10.5-34.7-31.5-34.7h-27.3V259.6z"/>
		<path class="st3" d="M1000,191.1h-47.4V352h-22.7V191.1h-47.3v-19.4H1000V191.1z"/>
	</g>
</g>
</svg>
