<?xml version="1.0" encoding="utf-8"?>
<!-- Generator: Adobe Illustrator 24.0.1, SVG Export Plug-In . SVG Version: 6.00 Build 0)  -->
<svg version="1.1" id="Vrstva_1" xmlns="http://www.w3.org/2000/svg" xmlns:xlink="http://www.w3.org/1999/xlink" x="0px" y="0px"
	 viewBox="0 0 1000 1000" style="enable-background:new 0 0 1000 1000;" xml:space="preserve">
<style type="text/css">
	.st0{fill:#153B72;}
</style>
<path class="st0" d="M994.26,562.66L868.52,778.21c-19.91,34.14-56.46,55.13-95.97,55.13H78.17c-32.16,0-52.19-34.88-35.99-62.66
	l125.74-215.55c19.91-34.14,56.46-55.13,95.98-55.13h694.38C990.43,500,1010.47,534.88,994.26,562.66z M263.89,444.44h569.44v-83.33
	c0-46.02-37.31-83.33-83.33-83.33H472.22L361.11,166.67H83.33C37.31,166.67,0,203.98,0,250v482.72l119.93-205.59
	C149.68,476.13,204.84,444.44,263.89,444.44z"/>
</svg>
