<?xml version="1.0" encoding="utf-8"?>
<!-- Generator: Adobe Illustrator 24.0.1, SVG Export Plug-In . SVG Version: 6.00 Build 0)  -->
<svg version="1.1" id="Vrstva_1" xmlns="http://www.w3.org/2000/svg" xmlns:xlink="http://www.w3.org/1999/xlink" x="0px" y="0px"
	 viewBox="0 0 1000 1000" style="enable-background:new 0 0 1000 1000;" xml:space="preserve">
<style type="text/css">
	.st0{fill-rule:evenodd;clip-rule:evenodd;fill:#FFFFFF;}
</style>
<path id="_155165616" class="st0" d="M757.84,383.95c-4.34,7.54-13.66,13.95-13.02,22.63c1.05,14.11,14.75,24.79,17.56,38.66
	c0.87,4.32-11.55,9.08-7.53,10.88c7.88,3.52,20.55-9.63,25.76-2.75c5.85,7.72-0.51,20.65-6.35,28.38
	c-3.76,4.97-14.39-0.75-18.25,4.15c-4.2,5.33,2.89,14.83-1.07,20.35c-2.77,3.87-11.31-2.7-14.27,1.04
	c-2.64,3.34,3.92,7.95,3.79,12.21c-0.08,2.73-6.55,5.32-4.36,6.95c4.38,3.28,11,3.32,16.3,1.97c11.05-2.82,19.85-15.41,31.17-14.11
	c7,0.8,8.7,11.81,9.68,18.78c1.12,7.97-7.64,16.9-3.64,23.88c2.51,4.39,9.5-7.8,14.08-5.67c6.57,3.06,5.54,15.34,12.31,17.94
	c9.22,3.53,19.75-2.96,29.57-1.88c3.95,0.43,9.01,2.48,10.14,6.28c1.85,6.22-7.26,14.88-2.53,19.33c4.92,4.63,13.99-5.72,20.09-2.82
	c8.74,4.15,9.87,20.02,19.42,21.6c10.72,1.77,18.87-12.49,29.69-13.46c3.92-0.36,2.4,8.4,5.87,10.26
	c5.37,2.89,14.64-2.35,18.11,2.66c3.54,5.1-8.07,14.02-3.56,18.29c7.72,7.3,22.99,0.6,30.97,7.61
	c11.25,9.88,14.82,26.03,22.24,39.05l0,0c-18.28,10.95-33.66,30.55-54.86,32.87l0,0c-14.51,1.59-22.82-23.19-37.4-22.79l0,0
	c-11.64,0.32-15.02,18.37-24.93,24.49l0,0c-4.51,2.78-11.36,3.48-15.91,0.73l0,0c-8.74-5.28-11.48-18.03-20.54-22.72l0,0
	c-18.76-9.7-39.38-21.16-60.4-19.14l0,0c-11.17,1.07-11.28,20.16-20.26,26.89l0,0c-5.16,3.87-14.99-2.22-19.18,2.69l0,0
	c-8.56,10.02-8.92,27.73-8.22,29.38l0,0c0.7,1.65,3.35,3.69,2.08,4.94l0,0c-6.5,6.4-16.46,8.67-22.69,15.34l0,0
	c-1.71,1.83,2.76,5.31,1.41,7.43l0,0c-6.41,10.07-19.06,16-23.43,27.11l0,0c-2.24,5.69,7.48,11.47,5.92,17.39l0,0
	c-1.16,4.41-10.64,2.06-12.13,6.37l0,0c-4.9,14.2-1.48,30.28-5.5,44.75l0,0c-1.3,4.69-5.17,9.7-9.93,10.72l0,0
	c-4.55,0.97-11.44-1.37-12.69-5.86l0,0c-3.15-11.25,3.12-23.51,1.23-35.04l0,0c-1.89-11.56-1.43-28.74-12.38-32.9l0,0
	c-15.33-5.83-31.96,11.99-48.24,9.86l0,0c-13.62-1.78-22.23-17.59-35.58-20.84l0,0c-6.88-1.68-14.85,12.2-19.98,7.3l0,0
	c-9.96-9.52-2.86-30.14-13.3-39.13l0,0c-7.68-6.61-20.84,4.96-30.38,1.53l0,0c-10.67-3.85-15.18-18.75-26.07-21.89l0,0
	c-4.89-1.41-5.11,10.88-10.17,11.42l0,0c-20.97,2.25-23.31-15.07-26.15-7.55l0,0c-3.89,10.29-5.68,21.65-11.67,30.88l0,0
	c-7.14,10.99-16.8,20.38-26.97,28.66l0,0c-2.29,1.86-6.4,2.17-8.86,0.54l0,0c-4.32-2.86-4.09-11.82-9.22-12.52l0,0
	c-3.79-0.52-0.51,10.53-4.34,10.66l0,0c-36.77,1.21-74.01-0.18-110.18-6.92l0,0c-17.95-3.35-33.98-13.75-49.77-22.9l0,0
	c-8.58-4.98-17.61-10.7-22.79-19.16l0,0c-2.12-3.46,6.46-8.28,4.01-11.51l0,0c-2.23-2.93-7.61,4.59-10.75,2.65l0,0
	c-4.72-2.91-3.47-11.76-8.34-14.43l0,0c-3.58-1.96-8.44,5.7-11.79,3.37l0,0c-5.12-3.56-2.73-13.4-7.81-17.02l0,0
	c-4.78-3.4-12.89,2.44-17.59-1.09l0,0c-3.31-2.49,3.5-11.06-0.41-12.41l0,0c-9.05-3.14-20.04-1.84-28.68,2.31l0,0
	c-6.4,3.08-5.6,15.1-12.33,17.41l0,0c-9.76,3.36-21.56,1.9-30.9-2.51l0,0c-14.13-6.67-22.66-22.23-36.57-29.35l0,0
	C22.3,669.49,4.08,670.08,0,668.72l21.79-28.76c4.15-2.78,7.6-9.54,12.44-8.34c7.24,1.8,8.83,16.63,16.19,15.46
	c6.63-1.05,1.35-14.77,6.49-19.06c5.29-4.42,13.89-5.6,20.42-3.41c6.22,2.09,6.97,16.96,13.13,14.69
	c8.53-3.14,6.04-17.96,12.66-24.18c3.95-3.72,11.78,0.52,16.06-2.82c6-4.69,5.38-16.02,12.24-19.3c7.95-3.81,19.24,5.79,26.47,0.73
	c5.95-4.17-2.44-17.06,3.24-21.57c4.36-3.46,10.13,9.1,15.24,6.9c5.42-2.33,2.54-12.25,6.75-16.36c3.56-3.48,9.81-6.32,14.33-4.25
	c3.9,1.78,0.54,9.28,3.48,12.41c4.19,4.47,10.32,7.03,16.23,8.64c3.03,0.83,7.07,0.57,9.27-1.66c3.5-3.55,0.94-13.39,5.91-13.75
	c9.07-0.67,15.82,9.81,24.76,11.49c5.09,0.95,10.32-1.84,15.01-4.02c4.82-2.25,11.49-4.06,13.11-9.12
	c1.39-4.33-10.17-9.78-6.28-12.13c10.4-6.3,25.61,0.39,36.01-5.9c5.4-3.27,0.3-13.55,4.26-18.46c2.66-3.3,9.53,0.68,12.49-2.34
	c5.64-5.75,9.77-13.59,10.92-21.55c0.65-4.48-1.62-11.11-6.02-12.18c-4.61-1.12-7.17,7.49-11.91,7.84
	c-3.04,0.23,6.07-4.39,5.42-7.35c-1.13-5.18-12.13-7.82-9.77-12.57c4.08-8.23,17.68-7.48,23.31-14.72
	c2.65-3.41,1.21-9.81-1.89-12.82c-4.67-4.55-16.53-0.59-18.33-6.86c-2.79-9.7,1.94-21.1,7.96-29.19c3.38-4.54,16.43,1.88,16.57-3.78
	c0.19-7.7-16.44-8.93-16.07-16.62c0.46-9.7,13.6-14.26,17.97-22.92c1.35-2.68-4.32-6.95-1.95-8.8
	c13.17-10.29,33.58-11.01,44.02-24.06c5.33-6.66-3-16.82-4.6-25.21c-2.22-11.63-7.7-23.04-6.89-34.83
	c0.6-8.71,12.3-15.18,10.97-23.81c-1.29-8.36-15.91-10.09-17.48-18.39c-0.95-5,10.5,6.78,14.75,3.99
	c7.81-5.15,16.65-14.44,15.11-23.67c-1.56-9.29-18.86-8.82-22.06-17.68c-2.68-7.41,5.04-14.94,7.57-22.4l0,0
	c2.75,2.1,5.56,8.51,8.23,6.31c4.46-3.68,1.32-11.92,4.45-16.77c1.59-2.46,5.55-4,8.27-2.94c2.98,1.16,1.91,8.32,5.09,8.14
	c7.11-0.4,12.03-8.98,19.13-9.47c8.34-0.58,17.51,11.48,24.22,6.5c7.55-5.6,0.19-19.49,4.52-27.83c1.73-3.35,7.31-2.2,11.07-2.24
	c19.23-0.19,38.74-1.78,57.67,1.58c17.57,3.13,33.71,11.77,50.57,17.65l0,0c-1.63,6.26,1.23,16.72-4.9,18.8
	c-7.7,2.62-16.44-14.88-22.51-9.46c-7.95,7.09-10.53,24.73-2.63,31.87c11.31,10.2,30.32,3.44,45.22,6.58
	c3.53,0.74-8.38-1.99-10.83,0.67c-3.02,3.29,0.36,9.46-1.97,13.26c-1.5,2.44-7.93,0.22-8.06,3.09c-0.57,12.72,1.41,25.93,6.22,37.71
	c2.49,6.1,13.9,6.76,14.64,13.31c0.52,4.61-9.58,2.63-12.44,6.28c-2.64,3.38-5.2,9.42-2.4,12.68c8.07,9.37,18.69,18.78,30.94,20.45
	c7.09,0.97,12.86-7.72,16.27-14.01c2.44-4.51-2.34-10.68-0.34-15.41c1.42-3.37,9.35-2.17,9.3-5.82c-0.09-7.82-4.74-15.3-9.61-21.43
	c-4.8-6.04-24.98-9.71-18.51-13.92c7.16-4.67,14.32-9.34,21.48-14.01c5.49-3.58,14.39-1,19.41,3.21c4.66,3.91,1.7,12.53,5.23,17.49
	c3.57,5.02,12.29,5.31,14.98,10.84c2.83,5.81-3.46,13.79-0.26,19.41c2.46,4.32,10.9,1.09,14.12,4.88
	c4.94,5.82,1.06,18.68,8.19,21.41c5.33,2.04,2.31-12.87,7.4-15.43c3.17-1.59,6.66,4.88,6.53,8.43c-0.39,9.99-14.16,21.07-7.99,28.94
	c10.5,13.39,34.67,8.55,46.78,20.51C755.84,356.26,754.15,371.73,757.84,383.95L757.84,383.95L757.84,383.95z"/>
</svg>
