<?xml version="1.0" encoding="utf-8"?>
<!-- Generator: Adobe Illustrator 23.0.6, SVG Export Plug-In . SVG Version: 6.00 Build 0)  -->
<svg version="1.1" id="Logo" xmlns="http://www.w3.org/2000/svg" xmlns:xlink="http://www.w3.org/1999/xlink" x="0px" y="0px"
	 viewBox="0 0 1000 301" style="enable-background:new 0 0 1000 301;" xml:space="preserve">
<style type="text/css">
	.st0{fill:#FE0201;}
	.st1{fill:#1B406C;}
</style>
<g>
	<path class="st0" d="M97.1,229.9c0,0.8-0.2,1.4-0.6,2c-0.4,0.6-1.1,1.1-2.2,1.4c-1.1,0.4-2.5,0.7-4.4,0.9c-1.8,0.2-4.2,0.3-7,0.3
		c-4.5,0-7.7-0.2-9.6-0.5c-2-0.3-3.4-0.9-4.2-1.5c-0.9-0.7-1.5-1.5-2-2.5L27,167V230c0,0.8-0.2,1.4-0.6,2c-0.4,0.5-1.1,1-2.2,1.4
		c-1,0.4-2.4,0.7-4.1,0.9c-1.7,0.2-3.9,0.3-6.6,0.3c-2.6,0-4.8-0.1-6.5-0.3c-1.7-0.2-3.1-0.5-4.2-0.9c-1-0.4-1.8-0.8-2.2-1.4
		c-0.4-0.5-0.7-1.2-0.7-2V104.8c0-0.8,0.2-1.4,0.7-2c0.4-0.5,1.2-1,2.2-1.3c1-0.3,2.4-0.6,4.2-0.8c1.7-0.2,3.9-0.3,6.5-0.3
		c2.7,0,4.9,0.1,6.6,0.3c1.7,0.2,3.1,0.5,4.1,0.8c1,0.3,1.7,0.8,2.2,1.3c0.4,0.5,0.6,1.2,0.6,2v56.6l38.9-56.5
		c0.5-0.9,1.1-1.6,1.7-2.2c0.7-0.6,1.6-1,2.7-1.4c1.1-0.3,2.5-0.6,4.2-0.7c1.7-0.1,3.9-0.2,6.6-0.2c2.7,0,5,0.1,6.8,0.3
		c1.8,0.2,3.2,0.5,4.3,0.9c1.1,0.4,1.8,0.8,2.2,1.4c0.4,0.5,0.6,1.2,0.6,1.8c0,1.2-0.3,2.4-0.9,3.6c-0.6,1.2-1.8,3.2-3.5,5.9
		L54.1,162l39.7,60.1c1.5,2.8,2.4,4.7,2.7,5.6C96.9,228.6,97.1,229.4,97.1,229.9z"/>
	<path class="st0" d="M213.6,230.4c0,0.8-0.1,1.4-0.4,1.9c-0.3,0.5-0.9,0.9-2,1.3c-1,0.3-2.5,0.6-4.5,0.7c-2,0.1-4.7,0.2-8.1,0.2
		c-2.9,0-5.2-0.1-6.9-0.2c-1.7-0.1-3.1-0.4-4.1-0.8c-1-0.4-1.7-0.9-2.1-1.4c-0.4-0.6-0.8-1.3-1-2.1l-11.9-29.7
		c-1.4-3.4-2.8-6.3-4.2-8.9c-1.4-2.6-2.9-4.8-4.6-6.5c-1.7-1.7-3.6-3.1-5.8-4c-2.2-0.9-4.7-1.3-7.6-1.3H142v50.6
		c0,0.7-0.2,1.3-0.7,1.8c-0.4,0.5-1.2,1-2.2,1.3c-1,0.3-2.4,0.6-4.1,0.8c-1.7,0.2-3.9,0.3-6.6,0.3c-2.6,0-4.8-0.1-6.5-0.3
		c-1.7-0.2-3.1-0.5-4.2-0.8c-1-0.3-1.7-0.8-2.2-1.3c-0.4-0.5-0.6-1.2-0.6-1.8V109.6c0-3,0.8-5.2,2.3-6.5c1.5-1.3,3.4-2,5.7-2h34.4
		c3.5,0,6.4,0.1,8.6,0.2c2.3,0.1,4.3,0.3,6.2,0.5c5.3,0.8,10.1,2.1,14.4,3.9c4.3,1.8,7.9,4.3,10.9,7.2c3,3,5.3,6.5,6.8,10.6
		c1.6,4.1,2.4,8.7,2.4,14c0,4.5-0.6,8.5-1.7,12.2c-1.1,3.7-2.8,6.9-5,9.8c-2.2,2.9-4.9,5.4-8.1,7.5c-3.2,2.1-6.9,3.8-11,5.1
		c2,1,3.9,2.1,5.6,3.5c1.7,1.4,3.4,3,4.9,5c1.5,2,3,4.2,4.4,6.7c1.4,2.5,2.7,5.3,4,8.5l11.2,26.2c1,2.6,1.7,4.5,2.1,5.7
		C213.5,228.8,213.6,229.8,213.6,230.4z M178.8,140.3c0-4.4-1-8.1-3-11.1c-2-3-5.2-5.1-9.8-6.4c-1.4-0.3-2.9-0.6-4.7-0.8
		c-1.7-0.2-4.2-0.3-7.2-0.3H142v37.7h13.8c3.8,0,7.2-0.5,10.1-1.4c2.9-0.9,5.3-2.2,7.2-3.9c1.9-1.7,3.4-3.7,4.3-6
		C178.3,145.8,178.8,143.1,178.8,140.3z"/>
	<path class="st0" d="M260.6,230.2c0,0.7-0.2,1.3-0.7,1.8c-0.4,0.5-1.2,1-2.2,1.3c-1,0.3-2.4,0.6-4.1,0.8c-1.7,0.2-3.9,0.3-6.6,0.3
		c-2.6,0-4.8-0.1-6.5-0.3c-1.7-0.2-3.1-0.5-4.2-0.8c-1-0.3-1.8-0.8-2.2-1.3c-0.4-0.5-0.7-1.2-0.7-1.8V104.7c0-0.7,0.2-1.3,0.7-1.8
		c0.4-0.5,1.2-1,2.3-1.3c1.1-0.3,2.4-0.6,4.2-0.8c1.7-0.2,3.9-0.3,6.5-0.3c2.7,0,4.9,0.1,6.6,0.3c1.7,0.2,3.1,0.5,4.1,0.8
		c1,0.3,1.8,0.8,2.2,1.3c0.4,0.5,0.7,1.2,0.7,1.8V230.2z"/>
	<path class="st0" d="M371.2,223.3c0,2-0.1,3.7-0.3,5c-0.2,1.4-0.4,2.5-0.8,3.3c-0.3,0.9-0.8,1.5-1.3,1.8c-0.5,0.3-1.1,0.5-1.7,0.5
		h-78.4c-2.7,0-4.8-0.8-6.3-2.4c-1.5-1.6-2.2-3.9-2.2-6.9v-4.5c0-1.4,0.1-2.6,0.3-3.7c0.2-1.1,0.5-2.3,0.9-3.4
		c0.4-1.2,1-2.4,1.8-3.8c0.8-1.4,1.8-3,2.9-4.9l51.6-81.8h-51.1c-0.8,0-1.5-0.2-2.1-0.6c-0.6-0.4-1.1-1-1.4-1.8
		c-0.4-0.8-0.7-1.9-0.8-3.3c-0.2-1.4-0.3-3-0.3-4.9c0-2.1,0.1-3.8,0.3-5.2c0.2-1.4,0.4-2.5,0.8-3.4c0.4-0.9,0.9-1.5,1.4-1.8
		c0.6-0.3,1.3-0.5,2.1-0.5H360c2.8,0,4.9,0.7,6.2,2.2c1.3,1.4,2,3.5,2,6.1v5c0,1.8-0.1,3.4-0.3,4.8c-0.2,1.3-0.5,2.6-0.9,3.9
		c-0.4,1.3-1,2.6-1.8,3.9c-0.8,1.3-1.7,2.9-2.9,4.8l-50.7,80.6h55.6c1.3,0,2.3,0.8,3,2.5C370.8,216.4,371.2,219.2,371.2,223.3z"/>
	<path class="st1" d="M481.1,141.4c0,7.5-1.2,14.1-3.5,19.8c-2.3,5.8-5.7,10.6-10.2,14.5c-4.5,3.9-9.9,6.9-16.4,9
		c-6.5,2.1-14.1,3.1-22.9,3.1h-11.1v42.4c0,0.7-0.2,1.3-0.7,1.8c-0.4,0.5-1.2,1-2.2,1.3c-1,0.3-2.4,0.6-4.1,0.8
		c-1.7,0.2-3.9,0.3-6.6,0.3c-2.6,0-4.8-0.1-6.5-0.3c-1.7-0.2-3.1-0.5-4.2-0.8c-1-0.3-1.7-0.8-2.2-1.3c-0.4-0.5-0.6-1.2-0.6-1.8
		V110.7c0-3.2,0.8-5.6,2.5-7.2c1.7-1.6,3.9-2.4,6.6-2.4h31.3c3.1,0,6.1,0.1,9,0.4c2.8,0.2,6.2,0.8,10.2,1.5c4,0.8,8,2.2,12.1,4.4
		c4.1,2.1,7.5,4.8,10.4,8.1c2.9,3.3,5.1,7.1,6.6,11.4C480.3,131.1,481.1,136,481.1,141.4z M452.8,143.4c0-4.7-0.8-8.5-2.5-11.5
		c-1.6-3-3.7-5.2-6.1-6.7c-2.4-1.4-4.9-2.3-7.5-2.7c-2.6-0.4-5.4-0.6-8.2-0.6h-11.5V167h12.1c4.3,0,7.9-0.6,10.8-1.7
		c2.9-1.2,5.3-2.8,7.1-4.9c1.8-2.1,3.3-4.6,4.2-7.5C452.3,149.9,452.8,146.8,452.8,143.4z"/>
	<path class="st1" d="M893.8,230.4c0,0.8-0.1,1.4-0.4,1.9c-0.3,0.5-0.9,0.9-2,1.3c-1,0.3-2.5,0.6-4.5,0.7c-2,0.1-4.7,0.2-8.1,0.2
		c-2.9,0-5.2-0.1-6.9-0.2c-1.7-0.1-3.1-0.4-4.1-0.8c-1-0.4-1.7-0.9-2.1-1.4c-0.4-0.6-0.8-1.3-1-2.1l-11.9-29.7
		c-1.4-3.4-2.8-6.3-4.2-8.9c-1.4-2.6-2.9-4.8-4.6-6.5c-1.7-1.7-3.6-3.1-5.8-4c-2.2-0.9-4.7-1.3-7.6-1.3h-8.4v50.6
		c0,0.7-0.2,1.3-0.7,1.8c-0.4,0.5-1.2,1-2.2,1.3c-1,0.3-2.4,0.6-4.1,0.8c-1.7,0.2-3.9,0.3-6.6,0.3c-2.6,0-4.8-0.1-6.5-0.3
		c-1.7-0.2-3.1-0.5-4.2-0.8c-1-0.3-1.7-0.8-2.2-1.3c-0.4-0.5-0.6-1.2-0.6-1.8V109.6c0-3,0.8-5.2,2.3-6.5c1.5-1.3,3.4-2,5.7-2h34.4
		c3.5,0,6.4,0.1,8.6,0.2c2.3,0.1,4.3,0.3,6.2,0.5c5.3,0.8,10.1,2.1,14.4,3.9c4.3,1.8,7.9,4.3,10.9,7.2c3,3,5.3,6.5,6.8,10.6
		c1.6,4.1,2.4,8.7,2.4,14c0,4.5-0.6,8.5-1.7,12.2c-1.1,3.7-2.8,6.9-5,9.8c-2.2,2.9-4.9,5.4-8.1,7.5c-3.2,2.1-6.9,3.8-11,5.1
		c2,1,3.9,2.1,5.6,3.5c1.7,1.4,3.4,3,4.9,5c1.5,2,3,4.2,4.4,6.7c1.4,2.5,2.7,5.3,4,8.5l11.2,26.2c1,2.6,1.7,4.5,2.1,5.7
		C893.6,228.8,893.8,229.8,893.8,230.4z M859,140.3c0-4.4-1-8.1-3-11.1c-2-3-5.2-5.1-9.8-6.4c-1.4-0.3-2.9-0.6-4.7-0.8
		c-1.7-0.2-4.2-0.3-7.2-0.3h-12.1v37.7H836c3.8,0,7.2-0.5,10.1-1.4c2.9-0.9,5.3-2.2,7.2-3.9c1.9-1.7,3.4-3.7,4.3-6
		C858.5,145.8,859,143.1,859,140.3z"/>
	<path class="st1" d="M1000,112.1c0,2-0.1,3.7-0.3,5.1c-0.2,1.4-0.4,2.5-0.8,3.4c-0.3,0.9-0.8,1.5-1.3,1.9c-0.5,0.4-1.1,0.6-1.7,0.6
		h-33.3v107.1c0,0.7-0.2,1.3-0.7,1.8c-0.4,0.5-1.2,1-2.2,1.3c-1,0.3-2.4,0.6-4.2,0.8c-1.7,0.2-3.9,0.3-6.5,0.3
		c-2.6,0-4.8-0.1-6.5-0.3c-1.7-0.2-3.1-0.5-4.2-0.8c-1-0.3-1.8-0.8-2.2-1.3c-0.4-0.5-0.7-1.2-0.7-1.8V123.1h-33.3
		c-0.7,0-1.3-0.2-1.7-0.6c-0.5-0.4-0.9-1-1.2-1.9c-0.3-0.9-0.6-2-0.8-3.4c-0.2-1.4-0.3-3.1-0.3-5.1c0-2.1,0.1-3.8,0.3-5.2
		c0.2-1.4,0.4-2.6,0.8-3.4c0.3-0.9,0.8-1.5,1.2-1.8c0.5-0.4,1.1-0.6,1.7-0.6H996c0.6,0,1.2,0.2,1.7,0.6c0.5,0.4,0.9,1,1.3,1.8
		c0.3,0.9,0.6,2,0.8,3.4C999.9,108.3,1000,110.1,1000,112.1z"/>
	<circle class="st1" cx="578" cy="204.7" r="47.2"/>
	<path class="st1" d="M630.2,259.1c-13.6,11.4-31.2,18.4-50.6,18.4c-42.9,0-77.7-34.1-77.7-76.2c0-18.8,6.9-36,18.4-49.2v-31.8
		c-25.7,18.1-42.4,47.7-42.4,81c0,55.1,45.5,99.8,101.6,99.8c34.2,0,64.4-16.5,82.8-41.9H630.2z"/>
	<path class="st0" d="M657.3,201.2c0,11.7-2.7,22.8-7.5,32.7h25.9c3.6-10.3,5.6-21.3,5.6-32.7c0-55.1-45.5-99.8-101.6-99.8
		c-12,0-23.5,2-34.2,5.8v25.5c10.3-5,21.9-7.8,34.2-7.8C622.5,125,657.3,159.1,657.3,201.2z"/>
	<path class="st0" d="M711,201.2c0,11.3-1.5,22.3-4.3,32.7h24.8c2.4-10.5,3.6-21.5,3.6-32.7c0-84.3-69.6-152.6-155.4-152.6
		c-11.7,0-23.2,1.3-34.2,3.7v24.4c10.9-2.9,22.3-4.4,34.2-4.4C652.2,72.3,711,130,711,201.2z"/>
	<path class="st0" d="M761,201.2c0,11.2-1.1,22.1-3.1,32.7h24c1.8-10.7,2.7-21.6,2.7-32.7c0-111.1-91.8-201.1-205-201.1
		c-11.6,0-23.1,1-34.2,2.8v23.6c11.1-2.1,22.5-3.2,34.2-3.2C679.8,23.2,761,102.9,761,201.2z"/>
</g>
</svg>
