<?xml version="1.0" encoding="utf-8"?>
<!-- Generator: Adobe Illustrator 26.0.2, SVG Export Plug-In . SVG Version: 6.00 Build 0)  -->
<svg version="1.1" xmlns="http://www.w3.org/2000/svg" xmlns:xlink="http://www.w3.org/1999/xlink" x="0px" y="0px"
	 viewBox="0 0 1000 332" style="enable-background:new 0 0 1000 332;" xml:space="preserve">
<style type="text/css">
	.st0{display:none;}
	.st1{display:inline;}
	.st2{fill:#0075BF;}
	.st3{fill:#E30613;}
	.st4{fill:#BE1622;stroke:#BE1622;stroke-width:0.5;stroke-miterlimit:10;}
	.st5{fill:#312783;stroke:#312783;stroke-width:0.5;stroke-miterlimit:10;}
	.st6{fill:#BE1622;}
	.st7{fill:#312783;}
	.st8{fill:#FFFFFF;stroke:#1D1D1B;stroke-miterlimit:10;}
</style>
<g id="mustr" class="st0">
	
		<image style="display:inline;overflow:visible;" width="126" height="43" xlink:href="../../../../../__Podklady/Grafický manuál 2022/bezport-logo-new.png"  transform="matrix(0.9683 0 0 0.9683 40.4571 21.2656)">
	</image>
</g>
<g id="symbol_old" class="st0">
	<g class="st1">
		<path class="st2" d="M89.8,65.7c2.3-10.6,3-20-4.7-31.7l8.9-2.6C96.7,42.1,94.4,53.7,89.8,65.7z"/>
		<path class="st3" d="M96.7,51.1c0.9-9.1,2.7-17,12.1-24.4l-6.5-4.4C97.3,30.3,96.1,40.2,96.7,51.1z"/>
	</g>
</g>
<g id="logo">
	<g>
		<g>
			<path class="st4" d="M0,199.3V17.6h51.8c16.6,0,29,4,37.4,12.1c8.4,8.1,12.5,20.2,12.5,36.3c0,8.5-2.1,16-6.4,22.5
				c-4.2,6.5-10,11.5-17.2,15.1c8.3,2.5,14.9,7.6,19.8,15.4c4.9,7.7,7.3,17.1,7.3,28c0,16.3-4.5,29.1-13.4,38.4
				c-8.9,9.3-21.7,14-38.3,14H0z M22.8,95.1h29.3c7.9,0,14.3-2.7,19.2-8c4.9-5.3,7.3-12.4,7.3-21.3c0-10-2.2-17.3-6.6-21.8
				c-4.4-4.5-11.2-6.8-20.2-6.8h-29V95.1z M22.8,114.3v65.4h31.2c8.7,0,15.5-2.8,20.6-8.5c5.1-5.7,7.6-13.7,7.6-24
				c0-21.9-9.2-32.8-27.7-32.8H22.8z"/>
			<path class="st4" d="M206.1,115.3h-64.3v64.4h74.9v19.6H119V17.6h96.5v19.6h-73.7v58.5h64.3V115.3z"/>
			<path class="st4" d="M252.8,179.7h86.3v19.6H227.5v-18l82.8-144.2h-81.9V17.6h107.4v17.5L252.8,179.7z"/>
		</g>
		<g>
			<path class="st5" d="M539.2,260.4v68.9H517V153.4h56.1c16.3,0,29.2,4.9,38.5,14.7c9.3,9.8,14,22.8,14,39.1
				c0,16.9-4.4,29.9-13.3,39.1c-8.9,9.1-21.4,13.9-37.6,14.2H539.2z M539.2,241.5h33.9c9.8,0,17.4-2.9,22.6-8.8
				c5.2-5.9,7.9-14.3,7.9-25.3c0-10.6-2.7-19-8.1-25.4c-5.4-6.4-12.8-9.6-22.2-9.6h-34.1V241.5z"/>
			<path class="st5" d="M758.7,256.8c0,24-5.1,42.5-15.3,55.5s-24.8,19.4-43.6,19.4c-18.1,0-32.4-6.3-42.9-18.9
				c-10.5-12.6-16-30.4-16.4-53.5v-33.1c0-23.5,5.2-41.9,15.6-55.3c10.4-13.3,24.9-20,43.5-20c18.5,0,33,6.4,43.3,19.2
				c10.3,12.8,15.6,31,15.9,54.7V256.8z M736.6,226c0-18.6-3-32.4-9.1-41.5c-6.1-9.1-15.4-13.6-28-13.6c-12.2,0-21.4,4.6-27.6,13.8
				s-9.4,22.7-9.5,40.6v31.5c0,18,3.1,31.7,9.4,41.1c6.2,9.4,15.6,14.1,28,14.1s21.6-4.3,27.5-13c6-8.7,9.1-22,9.3-40V226z"/>
			<path class="st5" d="M828.7,258.2h-30.9v71.2h-22.2V153.4h49.3c17.2,0,30.3,4.5,39.1,13.5c8.9,9,13.3,22.1,13.3,39.4
				c0,10.9-2.4,20.4-7.2,28.4c-4.8,8.1-11.6,14.2-20.4,18.3l34.1,74.8v1.4H860L828.7,258.2z M797.8,239.2h26.8c9.3,0,16.7-3,22.2-9
				s8.3-14,8.3-24c0-22.6-10.2-33.9-30.7-33.9h-26.6V239.2z"/>
			<path class="st5" d="M1000,172.4h-46.3v156.9h-22.1V172.4h-46.1v-19H1000V172.4z"/>
		</g>
		<g>
			<path class="st6" d="M559.2,45.2c-21.3,24.6-60.5,84.2-71.2,169.6c-8.1,64.5-18.2,68.5-26.9,0.5c-6.7-53-7.3-119.3,18.3-201.5
				c2.2-7.1,7.6-12.3,15-13.2c2.9-0.4,5.3-0.1,7.9,1c1.9,0.8,3.7,1.6,5.6,2.3c5.8,2.4,11.6,4.8,17.3,7.2c6,2.5,12,5,17.9,7.5
				c3.4,1.4,12,4.9,13,5.4c1.4,0.7,2.8,1.5,4,2.6c1.3,1.1,2.5,2.5,3.2,4.1c0.8,1.8,1,3.8,0.6,5.8c-0.5,2.8-2.1,5.4-3.8,7.6
				C560,44.3,559.6,44.7,559.2,45.2z"/>
			<path class="st7" d="M448.9,300.6c5.8-109.7-32.7-186.8-52.6-209.9c-9.1-10.5-22.5-2.3-22.5-2.3l-52.2,36
				c-5.7,3.9-6.6,12.8-0.7,17.6c62.1,50,97.4,114.8,108.3,166C436.2,340.1,447.2,334.6,448.9,300.6z"/>
			<path class="st8" d="M429.5,123"/>
		</g>
	</g>
</g>
</svg>
