<?xml version="1.0" encoding="utf-8"?>
<!-- Generator: Adobe Illustrator 26.0.2, SVG Export Plug-In . SVG Version: 6.00 Build 0)  -->
<svg version="1.1" id="Vrstva_1" xmlns="http://www.w3.org/2000/svg" xmlns:xlink="http://www.w3.org/1999/xlink" x="0px" y="0px"
	 viewBox="0 0 1000 454" style="enable-background:new 0 0 1000 454;" xml:space="preserve">
<style type="text/css">
	.st0{fill:#BD1622;}
	.st1{fill:#312782;}
	.st2{fill:#FFFFFF;stroke:#1D1D1B;stroke-miterlimit:10;}
</style>
<g>
	<path class="st0" d="M312.2,57.9c-27.5,31.7-77.9,108.5-91.8,218.6c-10.5,83.2-23.5,88.3-34.6,0.6c-8.7-68.3-9.5-153.8,23.6-259.8
		c2.8-9.1,9.7-15.8,19.4-17c3.7-0.5,6.9-0.2,10.2,1.2c2.4,1,4.8,2,7.2,3c7.4,3.1,14.9,6.2,22.3,9.3c7.7,3.2,15.4,6.4,23.1,9.6
		c4.3,1.8,15.5,6.3,16.7,6.9c1.8,0.9,3.6,2,5.1,3.3c1.7,1.5,3.2,3.2,4.2,5.3c1.1,2.3,1.3,4.9,0.8,7.4c-0.7,3.6-2.7,6.9-4.9,9.8
		C313.2,56.7,312.7,57.3,312.2,57.9z"/>
	<path class="st1" d="M170.1,387.1c7.4-141.4-42.1-240.9-67.8-270.5c-11.7-13.5-29-2.9-29-2.9L6.1,160.1c-7.4,5.1-8.6,16.5-0.9,22.7
		c80,64.4,125.5,148,139.6,214C153.7,438,167.8,430.9,170.1,387.1z"/>
	<g>
		<path class="st1" d="M281.9,302.2v-95.3H294v52.7l49.1-52.8h13l-38.3,42.1l40.4,53.4h-13.6L310.3,256L294,273v29.2H281.9z"/>
		<path class="st1" d="M362.1,282c0-4.4,1.3-8.3,3.8-11.5c2.6-3.2,6.1-5.8,10.5-7.5c4.5-1.8,9.7-2.7,15.6-2.7c3.1,0,6.4,0.2,9.9,0.7
			c3.5,0.5,6.6,1.2,9.3,2.2v-5.1c0-5.3-1.6-9.5-4.8-12.5c-3.2-3-7.8-4.6-13.7-4.6c-3.8,0-7.5,0.7-11.1,2.1c-3.5,1.4-7.3,3.4-11.2,6
			l-4.3-8.3c4.6-3.1,9.1-5.5,13.7-7c4.6-1.6,9.3-2.4,14.2-2.4c9,0,16,2.5,21.2,7.4c5.2,4.9,7.8,11.8,7.8,20.6v29.4
			c0,1.4,0.3,2.5,0.9,3.1c0.6,0.7,1.5,1,2.9,1.1v9.1c-1.2,0.2-2.2,0.3-3,0.4c-0.9,0.1-1.5,0.1-2.1,0.1c-2.8,0-4.9-0.8-6.2-2.3
			c-1.4-1.5-2.2-3.1-2.3-4.8l-0.3-4.4c-3,3.9-7,7-12,9.1c-4.9,2.1-9.8,3.2-14.6,3.2c-4.7,0-8.8-1-12.5-2.9c-3.7-1.9-6.5-4.5-8.6-7.7
			C363.1,289.6,362.1,286,362.1,282z M407.7,286.9c1.1-1.2,1.9-2.5,2.6-3.8c0.6-1.3,0.9-2.4,0.9-3.3v-8.6c-2.8-1.1-5.7-1.9-8.7-2.5
			c-3-0.6-6-0.9-9-0.9c-6,0-10.9,1.2-14.6,3.5c-3.7,2.4-5.6,5.6-5.6,9.6c0,2.2,0.6,4.4,1.8,6.4c1.2,2.1,3,3.8,5.4,5.1
			c2.4,1.3,5.3,2,8.8,2c3.7,0,7.2-0.7,10.5-2.2C403.1,291,405.8,289.1,407.7,286.9z"/>
		<path class="st1" d="M479,242.4c-5.9,0.1-11.1,1.6-15.6,4.5c-4.5,2.9-7.7,6.9-9.6,12v43.2H442v-69.7h11v15.8
			c2.4-4.8,5.6-8.7,9.6-11.7c4-3,8.2-4.7,12.6-5c0.9,0,1.7,0,2.3,0c0.6,0,1.2,0,1.6,0.1V242.4z"/>
		<path class="st1" d="M491,204.1h11.8v80.3c0,3.9,0.5,6.3,1.6,7.1c1.1,0.9,2.4,1.4,3.9,1.4c1.9,0,3.7-0.2,5.4-0.6
			c1.7-0.4,3.1-0.8,4.3-1.3l1.9,9.7c-2,0.8-4.3,1.5-7,2c-2.7,0.5-5.1,0.8-7.1,0.8c-4.6,0-8.2-1.3-10.8-3.9c-2.6-2.6-4-6.2-4-10.9
			V204.1z"/>
		<path class="st1" d="M559.7,303.5c-5.3,0-10.1-1-14.4-2.9c-4.3-1.9-8-4.5-11.1-7.9c-3.1-3.3-5.6-7.2-7.2-11.5
			c-1.7-4.4-2.6-8.9-2.6-13.7c0-4.9,0.8-9.5,2.6-13.9c1.7-4.4,4.1-8.2,7.2-11.5c3.1-3.3,6.9-6,11.2-7.9c4.3-1.9,9.2-2.9,14.4-2.9
			c5.2,0,9.9,1,14.2,2.9c4.3,1.9,8,4.5,11.2,7.9c3.2,3.3,5.6,7.2,7.3,11.5c1.7,4.4,2.6,9,2.6,13.9c0,4.8-0.9,9.4-2.6,13.7
			c-1.7,4.4-4.1,8.2-7.3,11.5c-3.1,3.3-6.9,6-11.2,7.9C569.8,302.5,565,303.5,559.7,303.5z M536.5,267.6c0,4.8,1.1,9.1,3.2,13
			c2.1,3.9,4.9,7,8.4,9.2c3.5,2.3,7.4,3.4,11.7,3.4c4.3,0,8.2-1.2,11.8-3.5c3.5-2.3,6.4-5.4,8.5-9.4c2.1-3.9,3.2-8.3,3.2-13.1
			c0-4.8-1.1-9.1-3.2-13c-2.1-3.9-4.9-7-8.5-9.3c-3.5-2.3-7.5-3.5-11.8-3.5c-4.3,0-8.2,1.2-11.7,3.5c-3.5,2.3-6.3,5.5-8.4,9.4
			C537.6,258.4,536.5,262.8,536.5,267.6z"/>
		<path class="st1" d="M627.3,302.2l-27.5-69.7h12.4l22,58.5l22-58.5h11.5l-27.5,69.7H627.3z"/>
		<path class="st1" d="M672.2,282c0-4.4,1.3-8.3,3.8-11.5c2.6-3.2,6.1-5.8,10.5-7.5c4.5-1.8,9.7-2.7,15.6-2.7c3.1,0,6.4,0.2,9.9,0.7
			c3.5,0.5,6.6,1.2,9.3,2.2v-5.1c0-5.3-1.6-9.5-4.8-12.5c-3.2-3-7.8-4.6-13.7-4.6c-3.9,0-7.5,0.7-11.1,2.1c-3.5,1.4-7.3,3.4-11.2,6
			l-4.3-8.3c4.6-3.1,9.1-5.5,13.7-7c4.6-1.6,9.3-2.4,14.2-2.4c9,0,16,2.5,21.2,7.4c5.2,4.9,7.8,11.8,7.8,20.6v29.4
			c0,1.4,0.3,2.5,0.9,3.1c0.6,0.7,1.5,1,2.9,1.1v9.1c-1.2,0.2-2.2,0.3-3,0.4c-0.9,0.1-1.5,0.1-2.1,0.1c-2.8,0-4.9-0.8-6.2-2.3
			c-1.4-1.5-2.2-3.1-2.4-4.8l-0.3-4.4c-3,3.9-7,7-11.9,9.1c-4.9,2.1-9.8,3.2-14.6,3.2c-4.7,0-8.8-1-12.5-2.9
			c-3.7-1.9-6.5-4.5-8.6-7.7C673.3,289.6,672.2,286,672.2,282z M717.9,286.9c1.1-1.2,1.9-2.5,2.6-3.8c0.6-1.3,0.9-2.4,0.9-3.3v-8.6
			c-2.8-1.1-5.7-1.9-8.7-2.5c-3-0.6-6-0.9-9-0.9c-6,0-10.9,1.2-14.6,3.5c-3.7,2.4-5.6,5.6-5.6,9.6c0,2.2,0.6,4.4,1.8,6.4
			c1.2,2.1,3,3.8,5.4,5.1c2.4,1.3,5.3,2,8.8,2c3.7,0,7.2-0.7,10.5-2.2C713.3,291,715.9,289.1,717.9,286.9z"/>
		<path class="st1" d="M789.2,242.4c-5.9,0.1-11.1,1.6-15.6,4.5c-4.5,2.9-7.7,6.9-9.6,12v43.2h-11.8v-69.7h11v15.8
			c2.4-4.8,5.6-8.7,9.6-11.7c4-3,8.2-4.7,12.6-5c0.9,0,1.7,0,2.3,0s1.2,0,1.6,0.1V242.4z"/>
		<path class="st1" d="M824.9,303.5c-5.8,0-11.3-1-16.4-2.9c-5.1-1.9-9.5-4.8-13.2-8.7l4.6-8.3c4,3.8,8.1,6.4,12.1,8.1
			c4,1.6,8.1,2.4,12.4,2.4c4.8,0,8.8-0.9,11.8-2.7c3-1.8,4.6-4.5,4.6-8c0-2.6-0.8-4.5-2.3-5.7c-1.6-1.2-3.8-2.3-6.6-3.1
			c-2.9-0.8-6.3-1.8-10.2-2.9c-4.8-1.4-8.9-2.9-12.2-4.5c-3.3-1.6-5.8-3.6-7.5-6c-1.7-2.4-2.6-5.4-2.6-9.1c0-4.4,1.2-8.2,3.5-11.3
			s5.5-5.4,9.6-7c4.1-1.6,8.7-2.4,13.9-2.4c5.2,0,9.9,0.8,14.1,2.4c4.2,1.6,7.8,4,10.9,7.1l-5.4,8.2c-2.8-2.9-5.8-5-9.1-6.4
			c-3.3-1.4-7-2.1-11.1-2.1c-2.4,0-4.8,0.3-7.1,0.9c-2.3,0.6-4.3,1.6-5.8,3.1c-1.5,1.5-2.3,3.5-2.3,6.2c0,2.2,0.6,4,1.8,5.3
			c1.2,1.3,3,2.4,5.4,3.3c2.4,0.9,5.3,1.9,8.7,2.9c5.3,1.5,9.9,3,13.8,4.5c3.9,1.5,6.9,3.5,9.1,5.9c2.1,2.4,3.2,5.7,3.2,10
			c0,6.6-2.5,11.7-7.5,15.4C839.8,301.7,833.2,303.5,824.9,303.5z"/>
		<path class="st1" d="M915.8,302.2l-24.3-34l-13.3,12.4v21.5h-11.8v-98h11.8v64.2l36.3-35.8h12.8l-27.9,28.9l29.3,40.8H915.8z"/>
		<path class="st1" d="M942,321.2c1.2,0.1,2.3,0.2,3.5,0.3c1.2,0.1,2.1,0.2,2.7,0.2c1.4,0,2.7-0.5,3.8-1.5c1.1-1,2.3-2.9,3.6-5.7
			c1.3-2.8,3-6.9,5-12.3l-29.7-69.8h12.5l23.6,57.9l21.4-57.9h11.7l-34.1,88.1c-0.8,2.1-2,4-3.6,5.8c-1.6,1.8-3.6,3.3-6,4.3
			c-2.4,1.1-5.3,1.6-8.7,1.6c-0.8,0-1.6,0-2.5-0.1c-0.9-0.1-1.9-0.3-3.2-0.5V321.2z M971.1,220.4l-7.8-2.7l7.8-13.6h11.8
			L971.1,220.4z"/>
		<path class="st1" d="M329.5,429l-24.3-34l-13.3,12.4V429h-11.8v-98h11.8v64.2l36.3-35.8h12.8l-27.9,28.9l29.3,40.8H329.5z"/>
		<path class="st1" d="M389.5,369.3c-5.9,0.1-11.1,1.6-15.6,4.5c-4.5,2.9-7.7,6.9-9.6,12V429h-11.8v-69.7h11v15.8
			c2.4-4.8,5.6-8.7,9.6-11.7c4-3,8.2-4.7,12.6-5c0.9,0,1.7,0,2.3,0c0.6,0,1.2,0,1.6,0.1V369.3z"/>
		<path class="st1" d="M395.7,408.9c0-4.4,1.3-8.3,3.8-11.5s6.1-5.8,10.5-7.5c4.5-1.8,9.7-2.7,15.6-2.7c3.1,0,6.4,0.2,9.9,0.7
			c3.5,0.5,6.6,1.2,9.3,2.2V385c0-5.3-1.6-9.5-4.8-12.5c-3.2-3-7.8-4.6-13.7-4.6c-3.8,0-7.5,0.7-11.1,2.1c-3.5,1.4-7.3,3.4-11.2,6
			l-4.3-8.3c4.6-3.1,9.1-5.5,13.7-7c4.6-1.6,9.3-2.3,14.2-2.3c9,0,16,2.5,21.2,7.4c5.2,4.9,7.8,11.8,7.8,20.6v29.4
			c0,1.4,0.3,2.5,0.9,3.1c0.6,0.7,1.5,1,2.9,1.1v9.1c-1.2,0.2-2.2,0.3-3,0.4c-0.9,0.1-1.5,0.1-2.1,0.1c-2.8,0-4.9-0.8-6.2-2.3
			c-1.4-1.5-2.2-3.1-2.3-4.8l-0.3-4.4c-3,3.9-7,7-12,9.1c-4.9,2.1-9.8,3.2-14.6,3.2c-4.7,0-8.8-1-12.5-2.9c-3.7-1.9-6.5-4.5-8.6-7.7
			C396.7,416.5,395.7,412.9,395.7,408.9z M441.3,413.8c1.1-1.2,1.9-2.5,2.6-3.8c0.6-1.3,0.9-2.4,0.9-3.3v-8.6
			c-2.8-1.1-5.7-1.9-8.7-2.5c-3-0.6-6-0.9-9-0.9c-6,0-10.9,1.2-14.6,3.5c-3.7,2.3-5.6,5.6-5.6,9.6c0,2.2,0.6,4.4,1.8,6.4
			c1.2,2.1,3,3.8,5.4,5.1c2.4,1.3,5.3,2,8.8,2c3.7,0,7.2-0.7,10.5-2.2C436.7,417.8,439.3,416,441.3,413.8z"/>
		<path class="st1" d="M466.5,454c-3,0-6-0.4-8.7-1.3c-2.8-0.9-5.2-2.3-7.4-4.3l5.5-7.9c1.3,1.2,2.7,2,4.4,2.4
			c1.7,0.4,3.3,0.7,4.9,0.7c2,0,3.8-0.5,5.5-1.5c1.7-1,3.1-2.3,4.2-4.1c1.1-1.7,1.6-3.7,1.6-5.8v-72.8h11.8v72.1
			c0,4.4-1,8.3-3.1,11.7c-2.1,3.4-4.7,6.1-8,8C474,453,470.4,454,466.5,454z M476.5,346.2v-14.8h11.8v14.8H476.5z"/>
	</g>
	<path class="st2" d="M145.1,158.2"/>
</g>
</svg>
